<?xml version="1.0" encoding="utf-8"?>
<!-- Generator: Adobe Illustrator 25.3.0, SVG Export Plug-In . SVG Version: 6.00 Build 0)  -->
<svg version="1.1" id="Capa_1" xmlns="http://www.w3.org/2000/svg" xmlns:xlink="http://www.w3.org/1999/xlink" x="0px" y="0px"
	 viewBox="0 0 30 30" style="enable-background:new 0 0 30 30;" xml:space="preserve">
<style type="text/css">
	.st0{fill:#FFFFFF;}
</style>
<path class="st0" d="M15,2c-0.26,0-0.51,0.1-0.7,0.29L3.39,11.21c-0.01,0.01-0.02,0.02-0.04,0.03l-0.04,0.03v0
	C3.12,11.46,3,11.72,3,12c0,0.55,0.45,1,1,1h1v11c0,1.1,0.89,2,2,2h16c1.1,0,2-0.9,2-2V13h1c0.55,0,1-0.45,1-1
	c0-0.28-0.12-0.54-0.32-0.73l-0.02-0.01c-0.02-0.02-0.04-0.04-0.07-0.06L25,9.89V6c0-0.55-0.45-1-1-1h-1c-0.55,0-1,0.45-1,1v1.44
	l-6.32-5.17C15.49,2.1,15.25,2,15,2z M18,15h4v8h-4V15z"/>
</svg>
