<?xml version="1.0" encoding="utf-8"?>
<!-- Generator: Adobe Illustrator 25.3.0, SVG Export Plug-In . SVG Version: 6.00 Build 0)  -->
<svg version="1.1" id="Capa_1" xmlns="http://www.w3.org/2000/svg" xmlns:xlink="http://www.w3.org/1999/xlink" x="0px" y="0px"
	 viewBox="0 0 31.47 5.59" style="enable-background:new 0 0 31.47 5.59;" xml:space="preserve">
<style type="text/css">
	.st0{fill:#FFFFFF;}
</style>
<g>
	<path class="st0" d="M3.78,0.78V1.5H2.8v2.96h-0.9V1.5H0.93V0.78H3.78z"/>
	<path class="st0" d="M6.13,4.45L5.36,3.07H5.15v1.39h-0.9V0.78h1.5c0.29,0,0.54,0.05,0.74,0.15s0.36,0.24,0.46,0.42
		C7.05,1.52,7.1,1.72,7.1,1.94c0,0.24-0.07,0.46-0.21,0.65S6.56,2.92,6.29,3l0.85,1.45H6.13z M5.15,2.43H5.7
		c0.16,0,0.29-0.04,0.37-0.12c0.08-0.08,0.12-0.19,0.12-0.34c0-0.14-0.04-0.25-0.12-0.33C5.99,1.56,5.87,1.52,5.7,1.52H5.15V2.43z"
		/>
	<path class="st0" d="M8.59,0.78v3.67h-0.9V0.78H8.59z"/>
	<path class="st0" d="M9.87,4.36C9.66,4.27,9.49,4.14,9.36,3.97C9.23,3.8,9.16,3.59,9.16,3.35h0.95c0.01,0.14,0.06,0.24,0.14,0.31
		c0.08,0.07,0.18,0.11,0.31,0.11c0.13,0,0.24-0.03,0.31-0.09c0.08-0.06,0.12-0.15,0.12-0.25c0-0.09-0.03-0.17-0.09-0.23
		s-0.14-0.11-0.23-0.15s-0.22-0.08-0.38-0.13c-0.24-0.07-0.43-0.15-0.58-0.22S9.44,2.52,9.33,2.38C9.22,2.24,9.17,2.05,9.17,1.82
		c0-0.34,0.12-0.61,0.37-0.8c0.25-0.19,0.57-0.29,0.97-0.29c0.4,0,0.73,0.1,0.98,0.29c0.25,0.19,0.38,0.46,0.4,0.81h-0.97
		c-0.01-0.12-0.05-0.21-0.13-0.28c-0.08-0.07-0.18-0.1-0.31-0.1c-0.11,0-0.2,0.03-0.26,0.09c-0.07,0.06-0.1,0.14-0.1,0.25
		c0,0.12,0.06,0.21,0.17,0.28c0.11,0.07,0.29,0.14,0.52,0.21c0.24,0.08,0.43,0.16,0.58,0.23s0.28,0.18,0.38,0.32
		c0.11,0.14,0.16,0.32,0.16,0.54c0,0.21-0.05,0.4-0.16,0.57c-0.11,0.17-0.26,0.31-0.46,0.41c-0.2,0.1-0.44,0.15-0.72,0.15
		C10.32,4.49,10.08,4.45,9.87,4.36z"/>
	<path class="st0" d="M14.76,2.24v0.74h-2.3V2.24H14.76z"/>
	<path class="st0" d="M18.3,2.89c0.13,0.17,0.19,0.35,0.19,0.57c0,0.31-0.11,0.55-0.32,0.73s-0.51,0.27-0.9,0.27h-1.71V0.78h1.65
		c0.37,0,0.67,0.09,0.88,0.26c0.21,0.17,0.32,0.4,0.32,0.7c0,0.22-0.06,0.4-0.17,0.54s-0.26,0.24-0.45,0.3
		C18,2.61,18.18,2.72,18.3,2.89z M16.46,2.27h0.59c0.15,0,0.26-0.03,0.34-0.1c0.08-0.06,0.12-0.16,0.12-0.29s-0.04-0.22-0.12-0.29
		c-0.08-0.07-0.19-0.1-0.34-0.1h-0.59V2.27z M17.47,3.63c0.08-0.07,0.12-0.17,0.12-0.3c0-0.13-0.04-0.23-0.13-0.3
		c-0.08-0.07-0.2-0.11-0.35-0.11h-0.65v0.81h0.66C17.27,3.73,17.39,3.7,17.47,3.63z"/>
	<path class="st0" d="M19.83,4.25c-0.29-0.16-0.52-0.38-0.69-0.67c-0.17-0.29-0.25-0.61-0.25-0.97s0.08-0.68,0.25-0.97
		c0.17-0.29,0.4-0.51,0.69-0.67s0.6-0.24,0.95-0.24c0.34,0,0.66,0.08,0.95,0.24c0.29,0.16,0.51,0.38,0.68,0.67
		c0.17,0.29,0.25,0.61,0.25,0.97s-0.08,0.68-0.25,0.97c-0.17,0.29-0.39,0.51-0.68,0.67s-0.6,0.24-0.95,0.24
		C20.44,4.49,20.12,4.41,19.83,4.25z M21.49,3.38c0.18-0.2,0.26-0.45,0.26-0.77c0-0.32-0.09-0.58-0.26-0.78
		c-0.18-0.19-0.41-0.29-0.7-0.29c-0.3,0-0.53,0.1-0.71,0.29c-0.18,0.19-0.26,0.45-0.26,0.78c0,0.32,0.09,0.58,0.26,0.78
		c0.18,0.19,0.41,0.29,0.71,0.29C21.07,3.67,21.31,3.58,21.49,3.38z"/>
	<path class="st0" d="M23.97,4.25c-0.29-0.16-0.52-0.38-0.69-0.67c-0.17-0.29-0.25-0.61-0.25-0.97s0.08-0.68,0.25-0.97
		c0.17-0.29,0.4-0.51,0.69-0.67s0.6-0.24,0.95-0.24c0.34,0,0.66,0.08,0.95,0.24c0.29,0.16,0.51,0.38,0.68,0.67
		c0.17,0.29,0.25,0.61,0.25,0.97s-0.08,0.68-0.25,0.97c-0.17,0.29-0.39,0.51-0.68,0.67s-0.6,0.24-0.95,0.24
		C24.58,4.49,24.26,4.41,23.97,4.25z M25.63,3.38c0.18-0.2,0.26-0.45,0.26-0.77c0-0.32-0.09-0.58-0.26-0.78
		c-0.18-0.19-0.41-0.29-0.7-0.29c-0.3,0-0.53,0.1-0.71,0.29c-0.18,0.19-0.26,0.45-0.26,0.78c0,0.32,0.09,0.58,0.26,0.78
		c0.18,0.19,0.41,0.29,0.71,0.29C25.21,3.67,25.45,3.58,25.63,3.38z"/>
	<path class="st0" d="M29.45,4.45l-1.24-1.62v1.62h-0.9V0.78h0.9v1.61l1.22-1.61h1.05l-1.42,1.8l1.48,1.87H29.45z"/>
</g>
</svg>
