<?xml version="1.0" encoding="utf-8"?>
<!-- Generator: Adobe Illustrator 25.3.0, SVG Export Plug-In . SVG Version: 6.00 Build 0)  -->
<svg version="1.1" id="Capa_1" xmlns="http://www.w3.org/2000/svg" xmlns:xlink="http://www.w3.org/1999/xlink" x="0px" y="0px"
	 viewBox="0 0 30 30" style="enable-background:new 0 0 30 30;" xml:space="preserve">
<style type="text/css">
	.st0{fill:#FFFFFF;}
</style>
<path class="st0" d="M6.53,2.52c-0.27,0-0.53,0.1-0.72,0.29c-0.39,0.39-0.39,1.02,0,1.41c0.39,0.39,1.02,0.39,1.41,0
	c0.39-0.39,0.39-1.02,0-1.41C7.04,2.62,6.79,2.52,6.53,2.52z M23.5,2.52c-0.27,0-0.53,0.1-0.72,0.29c-0.39,0.39-0.39,1.02,0,1.41
	c0.39,0.39,1.02,0.39,1.41,0c0.39-0.39,0.39-1.02,0-1.41C24.01,2.62,23.76,2.52,23.5,2.52z M15,3c-4.97,0-9,4.03-9,9c0,5,4,7,6,11h6
	c2-4,6-6,6-11C24,7.03,19.97,3,15,3z M15,6v5h4l-4,7v-5h-4L15,6z M3,11c-0.55,0-1,0.45-1,1s0.45,1,1,1s1-0.45,1-1S3.55,11,3,11z
	 M27,11c-0.55,0-1,0.45-1,1s0.45,1,1,1s1-0.45,1-1S27.55,11,27,11z M6.53,19.48c-0.27,0-0.53,0.1-0.72,0.29
	c-0.39,0.39-0.39,1.02,0,1.41c0.39,0.39,1.02,0.39,1.41,0c0,0,0,0,0,0c0.39-0.39,0.39-1.02,0-1.41C7.04,19.59,6.79,19.49,6.53,19.48
	z M23.5,19.49c-0.27,0-0.53,0.1-0.72,0.29c-0.39,0.39-0.39,1.02,0,1.41c0,0,0,0,0,0c0.39,0.39,1.02,0.39,1.41,0
	c0.39-0.39,0.39-1.02,0-1.41c0,0,0,0,0,0C24.01,19.59,23.76,19.49,23.5,19.49z M12,25v1c0,1.1,0.9,2,2,2c0,0.55,0.45,1,1,1
	s1-0.45,1-1c1.1,0,2-0.9,2-2v-1H12z"/>
</svg>
