<?xml version="1.0" encoding="utf-8"?>
<!-- Generator: Adobe Illustrator 25.3.0, SVG Export Plug-In . SVG Version: 6.00 Build 0)  -->
<svg version="1.1" id="Capa_1" xmlns="http://www.w3.org/2000/svg" xmlns:xlink="http://www.w3.org/1999/xlink" x="0px" y="0px"
	 viewBox="0 0 30 30" style="enable-background:new 0 0 30 30;" xml:space="preserve">
<path d="M13,3C7.49,3,3,7.49,3,13s4.49,10,10,10c2.4,0,4.6-0.85,6.32-2.26l5.97,5.97c0.38,0.4,1.02,0.41,1.41,0.03
	s0.41-1.02,0.03-1.41c-0.01-0.01-0.02-0.02-0.03-0.03l-5.97-5.97C22.15,17.6,23,15.4,23,13C23,7.49,18.51,3,13,3z M13,5
	c4.43,0,8,3.57,8,8s-3.57,8-8,8s-8-3.57-8-8S8.57,5,13,5z"/>
</svg>
